<?xml version="1.0" encoding="UTF-8" standalone="no"?>
<!-- Created with Inkscape (http://www.inkscape.org/) -->

<svg
   width="177.10736mm"
   height="46.745457mm"
   viewBox="0 0 177.10736 46.745457"
   version="1.1"
   id="svg1"
   xml:space="preserve"
   xmlns="http://www.w3.org/2000/svg"
   xmlns:svg="http://www.w3.org/2000/svg"><defs
     id="defs1" /><g
     id="layer2"
     style="display:inline"
     transform="translate(-13.95596,-64.453738)"><g
       id="g12"
       style="fill:#272735;fill-opacity:1"><path
         d="m 21.311563,72.177097 q 3.097161,0 5.151559,0.762618 2.054399,0.747054 3.081598,2.241162 1.042763,1.494107 1.042763,3.719705 0,1.385163 -0.466909,2.521307 -0.466909,1.136145 -1.338472,2.038835 -0.855999,0.887127 -2.054398,1.556362 l 6.630103,9.914028 h -6.972503 l -4.824723,-8.279847 h -1.556362 v 8.279847 H 13.856588 V 72.177097 Z m -0.09338,4.653524 h -1.213962 v 5.19825 h 1.151708 q 1.41629,0 2.31898,-0.622545 0.90269,-0.622545 0.90269,-2.225598 0,-1.105018 -0.747054,-1.727562 -0.747054,-0.622545 -2.412362,-0.622545 z m 21.789073,0.155636 q 2.567998,0 4.435633,0.90269 1.867635,0.887126 2.87927,2.676943 1.011636,1.789817 1.011636,4.482324 v 2.70807 H 40.45482 q 0.07782,1.385162 1.027199,2.272289 0.964945,0.887126 2.83258,0.887126 1.649744,0 3.019343,-0.326836 1.385162,-0.326836 2.848143,-1.011635 v 4.373378 q -1.276217,0.669236 -2.785889,0.980508 -1.509671,0.311273 -3.813088,0.311273 -2.661379,0 -4.762468,-0.949381 -2.101089,-0.949381 -3.315052,-2.941525 -1.198399,-1.992144 -1.198399,-5.120432 0,-3.174979 1.089454,-5.213814 1.089453,-2.054398 3.05047,-3.034906 1.961016,-0.996072 4.560141,-0.996072 z m 0.217891,4.139924 q -1.07389,0 -1.80538,0.684799 -0.715927,0.669236 -0.840436,2.116653 h 5.229378 q -0.01556,-0.778181 -0.311273,-1.41629 -0.295709,-0.638109 -0.871563,-1.011635 -0.56029,-0.373527 -1.400726,-0.373527 z m 24.652777,8.388792 q 0,1.680872 -0.747054,2.972652 -0.747054,1.291781 -2.396798,2.023271 -1.63418,0.731491 -4.311124,0.731491 -1.883198,0 -3.377306,-0.202327 -1.478544,-0.202328 -3.003779,-0.778182 v -4.871414 q 1.665308,0.762618 3.39287,1.105018 1.727562,0.326836 2.723634,0.326836 1.027199,0 1.494108,-0.217891 0.482472,-0.233454 0.482472,-0.684799 0,-0.389091 -0.326836,-0.653673 -0.311273,-0.280145 -1.136145,-0.638108 -0.809308,-0.357963 -2.287852,-0.964945 -1.462981,-0.606981 -2.443489,-1.322908 -0.964945,-0.715926 -1.447417,-1.711998 -0.482472,-0.996072 -0.482472,-2.443489 0,-2.583562 1.992144,-3.890906 1.992143,-1.307344 5.276068,-1.307344 1.743126,0 3.283924,0.38909 1.540799,0.373527 3.190543,1.105018 l -1.665308,3.922033 q -1.307344,-0.591418 -2.645816,-0.949381 -1.338471,-0.357964 -2.132216,-0.357964 -0.715927,0 -1.105017,0.186764 -0.389091,0.186763 -0.389091,0.544727 0,0.326836 0.264582,0.575854 0.280145,0.249018 1.042763,0.575854 0.762617,0.326836 2.225598,0.918253 1.540798,0.622545 2.53687,1.338472 1.011636,0.700363 1.494108,1.711999 0.498036,1.011635 0.498036,2.567997 z m 12.01512,0.918254 q 0.824872,0 1.509672,-0.1712 0.684799,-0.1712 1.431853,-0.435781 v 4.435632 q -0.996072,0.435782 -2.116653,0.700363 -1.105017,0.280146 -2.832579,0.280146 -1.711999,0 -3.019343,-0.529164 -1.307344,-0.544726 -2.038835,-1.867634 -0.715926,-1.338472 -0.715926,-3.719706 v -7.268212 h -2.132217 v -2.474616 l 2.708071,-1.914326 1.571926,-3.704142 H 78.2433 v 3.532942 h 4.326687 v 4.560142 H 78.2433 v 6.863558 q 0,0.855999 0.435782,1.29178 0.435781,0.420218 1.213962,0.420218 z"
         id="text1"
         style="font-weight:800;font-size:31.8743px;font-family:'Open Sans';-inkscape-font-specification:'Open Sans Ultra-Bold';stroke-width:2.65619"
         transform="scale(1.0071715,0.9928796)"
         aria-label="Rest" /><path
         d="m 126.58815,71.811173 q 4.3038,0 6.44022,1.873237 2.1519,1.873237 2.1519,5.325567 0,1.54813 -0.44896,2.972409 -0.43348,1.42428 -1.43976,2.538933 -0.99081,1.114654 -2.6473,1.764868 -1.64102,0.650215 -4.0561,0.650215 h -1.71843 v 7.50843 h -6.11511 V 71.811173 Z m -0.13934,4.938534 h -1.57909 v 5.201717 h 1.20754 q 0.78955,0 1.47073,-0.263182 0.68117,-0.278664 1.08369,-0.882434 0.41799,-0.619252 0.41799,-1.641018 0,-1.06821 -0.63473,-1.733906 -0.63473,-0.681177 -1.96613,-0.681177 z m 18.06668,0.154813 V 94.444832 H 138.4623 V 76.90452 Z m -3.00337,-7.059472 q 1.30043,0 2.26027,0.541846 0.97532,0.541845 0.97532,2.1519 0,1.563611 -0.97532,2.120938 -0.95984,0.541845 -2.26027,0.541845 -1.33139,0 -2.27575,-0.541845 -0.92888,-0.557327 -0.92888,-2.120938 0,-1.610055 0.92888,-2.1519 0.94436,-0.541846 2.27575,-0.541846 z m 13.28295,24.599784 h -6.05319 V 70.355931 h 6.05319 z m 20.9462,-8.808859 q 0,2.198344 -0.60377,3.901287 -0.60377,1.702943 -1.74939,2.86404 -1.14561,1.161098 -2.77115,1.764868 -1.62554,0.58829 -3.66907,0.58829 -1.9042,0 -3.49877,-0.58829 -1.5791,-0.60377 -2.75567,-1.764868 -1.17658,-1.161097 -1.8268,-2.86404 -0.63473,-1.702943 -0.63473,-3.901287 0,-2.910484 1.05273,-4.923053 1.06821,-2.012569 3.03433,-3.065297 1.98161,-1.052729 4.7218,-1.052729 2.52345,0 4.48958,1.052729 1.96612,1.052728 3.08077,3.065297 1.13014,2.012569 1.13014,4.923053 z m -11.36327,0 q 0,1.501686 0.26318,2.538933 0.26318,1.021766 0.83599,1.563611 0.58829,0.526364 1.53265,0.526364 0.94436,0 1.50168,-0.526364 0.55733,-0.541845 0.80503,-1.563611 0.26318,-1.037247 0.26318,-2.538933 0,-1.501686 -0.26318,-2.507971 -0.2477,-1.006284 -0.82051,-1.517167 -0.55733,-0.510883 -1.51717,-0.510883 -1.37783,0 -1.99708,1.145616 -0.60377,1.145617 -0.60377,3.390405 z m 23.40772,4.334763 q 0.82051,0 1.50168,-0.170294 0.68118,-0.170294 1.42428,-0.433476 v 4.41217 q -0.9908,0.433476 -2.10545,0.696658 -1.09917,0.278664 -2.8176,0.278664 -1.70294,0 -3.00337,-0.526364 -1.30043,-0.541846 -2.02805,-1.857756 -0.71214,-1.331392 -0.71214,-3.700031 v -7.229766 h -2.12094 v -2.461527 l 2.69375,-1.904199 1.56361,-3.68455 h 3.96321 v 3.514255 h 4.3038 v 4.536021 h -4.3038 v 6.827253 q 0,0.851471 0.43348,1.284947 0.43347,0.417995 1.20754,0.417995 z"
         id="text1-3"
         style="font-weight:800;font-size:31.7057px;font-family:'Open Sans';-inkscape-font-specification:'Open Sans Ultra-Bold';stroke-width:2.64214"
         transform="scale(1.0018438,0.99815957)"
         aria-label="Pilot" /><path
         d="m 27.718751,109.63969 -0.275521,-1.04851 h -1.817676 l -0.283174,1.04851 h -1.660781 l 1.825328,-5.61758 h 2.016663 l 1.848289,5.61758 z m -0.58931,-2.28836 -0.241081,-0.91841 q -0.03827,-0.14924 -0.110974,-0.42476 -0.07271,-0.27935 -0.145414,-0.574 -0.06888,-0.29848 -0.107147,-0.48982 -0.03444,0.19134 -0.09949,0.47451 -0.06123,0.27935 -0.130107,0.55487 -0.06505,0.27552 -0.1148,0.4592 l -0.241081,0.91841 z m 2.847054,-3.30626 h 1.951609 q 1.213059,0 1.729661,0.35971 0.516603,0.35971 0.516603,1.03321 0,0.36736 -0.133934,0.62375 -0.130107,0.25638 -0.332922,0.40563 -0.198987,0.14924 -0.409455,0.20281 v 0.0383 q 0.229601,0.0574 0.455375,0.19133 0.229602,0.13011 0.378842,0.39415 0.153068,0.26021 0.153068,0.70794 0,0.50894 -0.260215,0.87631 -0.256388,0.36736 -0.734723,0.56635 -0.478336,0.19516 -1.136526,0.19516 h -2.177383 z m 1.51154,2.14677 h 0.455376 q 0.375015,0 0.528082,-0.15306 0.153067,-0.1569 0.153067,-0.37885 0,-0.2296 -0.176027,-0.34822 -0.172201,-0.12246 -0.535736,-0.12246 h -0.424762 z m 0,1.10592 v 1.17479 h 0.531909 q 0.394149,0 0.551043,-0.16838 0.156894,-0.1722 0.156894,-0.42858 0,-0.14925 -0.06888,-0.27935 -0.06505,-0.13394 -0.225775,-0.2143 -0.16072,-0.0842 -0.443895,-0.0842 z m 6.237496,2.34193 h -1.51154 v -4.3586 h -1.366127 v -1.23602 h 4.239967 v 1.23602 h -1.3623 z m 7.396981,-2.80496 q 0,0.64671 -0.156894,1.17862 -0.153067,0.52808 -0.482162,0.91075 -0.329095,0.38267 -0.845698,0.58931 -0.516602,0.20281 -1.236019,0.20281 -0.70411,0 -1.220712,-0.20281 -0.512776,-0.20664 -0.845697,-0.58549 -0.332922,-0.38267 -0.493643,-0.91457 -0.16072,-0.53191 -0.16072,-1.18628 0,-0.87248 0.287001,-1.51536 0.290828,-0.64671 0.895444,-0.99877 0.604616,-0.35588 1.545981,-0.35588 0.956671,0 1.553634,0.35588 0.600789,0.35588 0.880137,1.00259 0.279348,0.64671 0.279348,1.5192 z m -3.849645,0 q 0,0.50512 0.114801,0.86865 0.1148,0.36354 0.363535,0.5587 0.248734,0.19516 0.650536,0.19516 0.417109,0 0.662017,-0.19516 0.248734,-0.19516 0.355881,-0.5587 0.110974,-0.36353 0.110974,-0.86865 0,-0.75769 -0.252561,-1.19776 -0.252561,-0.44006 -0.868657,-0.44006 -0.409456,0 -0.662017,0.19898 -0.248734,0.19899 -0.363535,0.56635 -0.110974,0.36736 -0.110974,0.87249 z m 4.85989,2.80496 v -5.59462 h 4.584368 v 5.59462 h -1.52302 v -4.3586 h -1.542154 v 4.3586 z m 5.789774,-5.59462 h 1.40822 v 2.56006 q 0,0.1722 -0.0038,0.36353 -0.0038,0.18751 -0.01148,0.37119 -0.0077,0.18368 -0.01913,0.34823 -0.01148,0.16454 -0.02679,0.29083 h 0.03061 l 2.303664,-3.93384 h 1.733488 v 5.59462 h -1.412047 v -2.42229 q 0,-0.1569 0.0038,-0.35589 0.0077,-0.19898 0.01531,-0.40945 0.01148,-0.21047 0.02296,-0.40563 0.01531,-0.19516 0.03061,-0.34058 h -0.03444 l -2.303664,3.93384 h -1.737315 z m 11.388213,5.59462 h -1.519193 v -4.3586 h -1.067645 q -0.02679,0.31379 -0.07271,0.70794 -0.04592,0.39032 -0.103321,0.8036 -0.05357,0.40946 -0.1148,0.7883 -0.06123,0.37884 -0.126281,0.66202 -0.09949,0.46303 -0.294655,0.79212 -0.191334,0.3291 -0.524255,0.50512 -0.332922,0.17603 -0.857178,0.17603 -0.168374,0 -0.313788,-0.023 -0.145414,-0.023 -0.279348,-0.0612 v -1.16714 q 0.103321,0.0344 0.191334,0.0574 0.08801,0.0191 0.183681,0.0191 0.126281,0 0.221948,-0.0727 0.09949,-0.0727 0.183681,-0.31761 0.08801,-0.24491 0.172201,-0.75386 0.03061,-0.16455 0.08036,-0.48982 0.04975,-0.32909 0.110974,-0.77681 0.06505,-0.44773 0.130107,-0.97963 0.06888,-0.53191 0.133934,-1.10592 h 3.864951 z m 6.444136,-2.80496 q 0,0.64671 -0.156894,1.17862 -0.153067,0.52808 -0.482162,0.91075 -0.329095,0.38267 -0.845697,0.58931 -0.516603,0.20281 -1.23602,0.20281 -0.70411,0 -1.220712,-0.20281 -0.512776,-0.20664 -0.845697,-0.58549 -0.332922,-0.38267 -0.493643,-0.91457 -0.16072,-0.53191 -0.16072,-1.18628 0,-0.87248 0.287001,-1.51536 0.290828,-0.64671 0.895444,-0.99877 0.604616,-0.35588 1.545981,-0.35588 0.956671,0 1.553634,0.35588 0.600789,0.35588 0.880137,1.00259 0.279348,0.64671 0.279348,1.5192 z m -3.849645,0 q 0,0.50512 0.114801,0.86865 0.114801,0.36354 0.363535,0.5587 0.248735,0.19516 0.650536,0.19516 0.417109,0 0.662017,-0.19516 0.248734,-0.19516 0.355881,-0.5587 0.110974,-0.36353 0.110974,-0.86865 0,-0.75769 -0.252561,-1.19776 -0.252561,-0.44006 -0.868657,-0.44006 -0.409455,0 -0.662017,0.19898 -0.248734,0.19899 -0.363535,0.56635 -0.110974,0.36736 -0.110974,0.87249 z m 7.328104,2.80496 h -1.511541 v -4.3586 h -1.366126 v -1.23602 h 4.239966 v 1.23602 h -1.362299 z m 9.065415,-5.59462 v 4.35477 h 0.765337 v 2.98099 h -1.473273 v -1.74114 h -3.260336 v 1.74114 h -1.473273 v -2.98099 h 0.463029 q 0.260214,-0.44007 0.470682,-0.94519 0.210467,-0.50512 0.367362,-1.05999 0.16072,-0.55487 0.260214,-1.14418 0.103321,-0.59314 0.149241,-1.20541 z m -1.52302,1.23602 h -0.994938 q -0.03827,0.40946 -0.110974,0.81126 -0.07271,0.39798 -0.183681,0.7883 -0.107147,0.39032 -0.248734,0.76916 -0.141588,0.37884 -0.317615,0.75003 h 1.855942 z m 7.798781,4.3586 h -1.519193 v -4.3586 h -1.067645 q -0.02679,0.31379 -0.07271,0.70794 -0.04592,0.39032 -0.103321,0.8036 -0.05357,0.40946 -0.1148,0.7883 -0.06123,0.37884 -0.126281,0.66202 -0.09949,0.46303 -0.294655,0.79212 -0.191334,0.3291 -0.524255,0.50512 -0.332922,0.17603 -0.857178,0.17603 -0.168374,0 -0.313788,-0.023 -0.145414,-0.023 -0.279348,-0.0612 v -1.16714 q 0.103321,0.0344 0.191334,0.0574 0.08801,0.0191 0.183681,0.0191 0.126281,0 0.221948,-0.0727 0.09949,-0.0727 0.183681,-0.31761 0.08801,-0.24491 0.172201,-0.75386 0.03061,-0.16455 0.08036,-0.48982 0.04975,-0.32909 0.110974,-0.77681 0.06505,-0.44773 0.130107,-0.97963 0.06888,-0.53191 0.133934,-1.10592 h 3.864951 z m 3.348352,-2.0358 -1.105912,2.0358 h -1.714354 l 1.5345,-2.44525 q -0.229601,-0.13011 -0.432415,-0.33293 -0.198988,-0.20281 -0.321442,-0.48981 -0.122454,-0.29083 -0.122454,-0.6735 0,-0.81891 0.570176,-1.23602 0.570176,-0.41711 1.710528,-0.41711 h 1.855942 v 5.59462 h -1.51154 v -2.0358 z m 0.463029,-2.41464 h -0.321441 q -0.313789,0 -0.482163,0.0918 -0.168374,0.088 -0.233427,0.22195 -0.06123,0.13011 -0.06123,0.26404 0,0.39415 0.225774,0.54722 0.225774,0.15307 0.589309,0.15307 h 0.283175 z m 4.756566,-1.14418 h 1.951609 q 1.213059,0 1.729659,0.35971 0.5166,0.35971 0.5166,1.03321 0,0.36736 -0.13393,0.62375 -0.13011,0.25638 -0.33292,0.40563 -0.19899,0.14924 -0.40946,0.20281 v 0.0383 q 0.22961,0.0574 0.45538,0.19133 0.2296,0.13011 0.37884,0.39415 0.15307,0.26021 0.15307,0.70794 0,0.50894 -0.26022,0.87631 -0.25638,0.36736 -0.73472,0.56635 -0.478335,0.19516 -1.136525,0.19516 h -2.177383 z m 1.51154,2.14677 h 0.455376 q 0.375015,0 0.528082,-0.15306 0.153067,-0.1569 0.153067,-0.37885 0,-0.2296 -0.176027,-0.34822 -0.172201,-0.12246 -0.535736,-0.12246 h -0.424762 z m 0,1.10592 v 1.17479 h 0.531909 q 0.394149,0 0.551043,-0.16838 0.156894,-0.1722 0.156894,-0.42858 0,-0.14925 -0.06888,-0.27935 -0.06505,-0.13394 -0.225775,-0.2143 -0.16072,-0.0842 -0.443895,-0.0842 z m 7.201818,2.34193 -0.27552,-1.04851 h -1.81768 l -0.28317,1.04851 h -1.66078 l 1.82533,-5.61758 h 2.01666 l 1.84829,5.61758 z m -0.58931,-2.28836 -0.24108,-0.91841 q -0.0383,-0.14924 -0.11097,-0.42476 -0.0727,-0.27935 -0.14542,-0.574 -0.0689,-0.29848 -0.10715,-0.48982 -0.0344,0.19134 -0.0995,0.47451 -0.0612,0.27935 -0.13011,0.55487 -0.065,0.27552 -0.1148,0.4592 l -0.24108,0.91841 z m 10.16751,2.28836 h -7.32045 v -5.59462 h 1.51919 v 4.35477 h 1.39674 v -4.35477 h 1.48858 v 4.35477 h 1.39292 v -4.35477 h 1.52302 z m 4.52696,0 h -3.32156 v -5.59462 h 3.32156 v 1.21306 h -1.81002 v 0.88014 h 1.67609 v 1.21306 h -1.67609 v 1.05616 h 1.81002 z m 4.71065,-5.59462 v 1.22072 h -2.21183 v 4.3739 h -1.51919 v -5.59462 z m 6.03469,2.78966 q 0,0.64671 -0.1569,1.17862 -0.15307,0.52808 -0.48216,0.91075 -0.3291,0.38267 -0.8457,0.58931 -0.5166,0.20281 -1.23602,0.20281 -0.70411,0 -1.22071,-0.20281 -0.51278,-0.20664 -0.8457,-0.58549 -0.33292,-0.38267 -0.49364,-0.91457 -0.16072,-0.53191 -0.16072,-1.18628 0,-0.87248 0.287,-1.51536 0.29083,-0.64671 0.89545,-0.99877 0.60461,-0.35588 1.54598,-0.35588 0.95667,0 1.55363,0.35588 0.60079,0.35588 0.88014,1.00259 0.27935,0.64671 0.27935,1.5192 z m -3.84965,0 q 0,0.50512 0.1148,0.86865 0.1148,0.36354 0.36354,0.5587 0.24873,0.19516 0.65053,0.19516 0.41711,0 0.66202,-0.19516 0.24873,-0.19516 0.35588,-0.5587 0.11097,-0.36353 0.11097,-0.86865 0,-0.75769 -0.25256,-1.19776 -0.25256,-0.44006 -0.86865,-0.44006 -0.40946,0 -0.66202,0.19898 -0.24874,0.19899 -0.36354,0.56635 -0.11097,0.36736 -0.11097,0.87249 z m 8.83199,-2.78966 q 1.06382,0 1.5919,0.46303 0.53191,0.46303 0.53191,1.31638 0,0.38267 -0.11098,0.73473 -0.10714,0.35205 -0.35588,0.62757 -0.24491,0.27552 -0.65436,0.43624 -0.40563,0.16072 -1.00259,0.16072 h -0.42476 v 1.85595 h -1.51154 v -5.59462 z m -0.0344,1.22072 h -0.39032 v 1.28576 h 0.29848 q 0.19516,0 0.36353,-0.065 0.16838,-0.0689 0.26787,-0.21812 0.10332,-0.15307 0.10332,-0.40563 0,-0.26404 -0.15689,-0.42859 -0.1569,-0.16837 -0.48599,-0.16837 z m 6.37143,4.3739 h -3.32157 v -5.59462 h 3.32157 v 1.21306 h -1.81003 v 0.88014 h 1.67609 v 1.21306 h -1.67609 v 1.05616 h 1.81003 z m 3.4708,-4.43513 q -0.26787,0 -0.47834,0.1148 -0.21046,0.11097 -0.3597,0.32527 -0.14925,0.21429 -0.22961,0.52425 -0.0765,0.30614 -0.0765,0.69646 0,0.52808 0.13393,0.88779 0.13394,0.35971 0.40563,0.54339 0.27552,0.18368 0.68881,0.18368 0.37501,0 0.71941,-0.10332 0.34823,-0.10332 0.70029,-0.24873 v 1.27811 q -0.37119,0.16455 -0.76151,0.23725 -0.3865,0.0727 -0.82274,0.0727 -0.91075,0 -1.49241,-0.35971 -0.57783,-0.36353 -0.85335,-1.00642 -0.27169,-0.64288 -0.27169,-1.4924 0,-0.63523 0.17602,-1.16332 0.17986,-0.52808 0.52426,-0.91457 0.3444,-0.39032 0.84952,-0.60079 0.50895,-0.2143 1.16332,-0.2143 0.40562,0 0.85335,0.0957 0.45155,0.0918 0.88013,0.29848 l -0.46302,1.1901 q -0.30614,-0.14541 -0.61993,-0.24491 -0.31379,-0.0995 -0.66584,-0.0995 z m 5.0627,4.43513 h -1.51154 v -4.3586 h -1.36612 v -1.23602 h 4.23996 v 1.23602 h -1.3623 z m 7.39698,-2.80496 q 0,0.64671 -0.15689,1.17862 -0.15307,0.52808 -0.48216,0.91075 -0.3291,0.38267 -0.8457,0.58931 -0.5166,0.20281 -1.23602,0.20281 -0.70411,0 -1.22071,-0.20281 -0.51278,-0.20664 -0.8457,-0.58549 -0.33292,-0.38267 -0.49364,-0.91457 -0.16072,-0.53191 -0.16072,-1.18628 0,-0.87248 0.287,-1.51536 0.29083,-0.64671 0.89544,-0.99877 0.60462,-0.35588 1.54598,-0.35588 0.95667,0 1.55364,0.35588 0.60079,0.35588 0.88013,1.00259 0.27935,0.64671 0.27935,1.5192 z m -3.84964,0 q 0,0.50512 0.1148,0.86865 0.1148,0.36354 0.36353,0.5587 0.24874,0.19516 0.65054,0.19516 0.41711,0 0.66202,-0.19516 0.24873,-0.19516 0.35588,-0.5587 0.11097,-0.36353 0.11097,-0.86865 0,-0.75769 -0.25256,-1.19776 -0.25256,-0.44006 -0.86866,-0.44006 -0.40945,0 -0.66201,0.19898 -0.24874,0.19899 -0.36354,0.56635 -0.11097,0.36736 -0.11097,0.87249 z m 6.79619,-2.78966 q 1.06382,0 1.5919,0.46303 0.53191,0.46303 0.53191,1.31638 0,0.38267 -0.11098,0.73473 -0.10714,0.35205 -0.35588,0.62757 -0.24491,0.27552 -0.65436,0.43624 -0.40563,0.16072 -1.00259,0.16072 h -0.42476 v 1.85595 h -1.51154 v -5.59462 z m -0.0344,1.22072 H 160.478 v 1.28576 h 0.29848 q 0.19516,0 0.36353,-0.065 0.16838,-0.0689 0.26787,-0.21812 0.10332,-0.15307 0.10332,-0.40563 0,-0.26404 -0.15689,-0.42859 -0.1569,-0.16837 -0.48599,-0.16837 z m 6.48241,4.3739 -0.27552,-1.04851 h -1.81768 l -0.28317,1.04851 h -1.66078 l 1.82532,-5.61758 h 2.01667 l 1.84829,5.61758 z m -0.58931,-2.28836 -0.24108,-0.91841 q -0.0383,-0.14924 -0.11098,-0.42476 -0.0727,-0.27935 -0.14541,-0.574 -0.0689,-0.29848 -0.10715,-0.48982 -0.0344,0.19134 -0.0995,0.47451 -0.0612,0.27935 -0.13011,0.55487 -0.0651,0.27552 -0.1148,0.4592 l -0.24108,0.91841 z m 7.64188,2.28836 h -1.51919 v -2.28071 h -1.75645 v 2.28071 h -1.51919 v -5.59462 h 1.51919 v 2.07407 h 1.75645 v -2.07407 h 1.51919 z m 4.64176,0 -0.27552,-1.04851 h -1.81767 l -0.28318,1.04851 h -1.66078 l 1.82533,-5.61758 h 2.01666 l 1.84829,5.61758 z m -0.58931,-2.28836 -0.24108,-0.91841 q -0.0383,-0.14924 -0.11097,-0.42476 -0.0727,-0.27935 -0.14541,-0.574 -0.0689,-0.29848 -0.10715,-0.48982 -0.0344,0.19134 -0.0995,0.47451 -0.0612,0.27935 -0.1301,0.55487 -0.0651,0.27552 -0.1148,0.4592 l -0.24108,0.91841 z"
         id="text2"
         style="font-weight:800;font-size:7.83705px;font-family:'Open Sans';-inkscape-font-specification:'Open Sans Ultra-Bold';stroke-width:0.653087"
         transform="scale(1.0016334,0.9983693)"
         aria-label="АВТОПИЛОТ ДЛЯ ВАШЕГО РЕСТОРАНА" /><rect
         style="fill:#272735;fill-opacity:1;stroke-width:0.264583"
         id="rect2"
         width="4.3563418"
         height="1.0250216"
         x="17.553495"
         y="106.98086" /><rect
         style="fill:#272735;fill-opacity:1;stroke-width:0.264583"
         id="rect2-1"
         width="4.3563418"
         height="1.0250216"
         x="183.01564"
         y="106.98086" /></g></g><g
     id="layer3"
     transform="translate(-13.95596,-64.453738)"><g
       id="g13"
       style="fill:none;fill-opacity:1;stroke:#ea580c;stroke-opacity:1"><path
         id="path11-6-5"
         style="fill:none;fill-opacity:1;stroke:#ea580c;stroke-width:3.365;stroke-linecap:round;stroke-dasharray:none;stroke-opacity:1"
         d="m 109.96691,66.164012 c 2.78988,0 9.16158,6.605147 1.82155,13.669974 0.33751,7.596837 3.96291,17.984463 -1.82155,17.984463 m -0.3299,-31.654437 c -2.78988,0 -9.16158,6.605147 -1.82155,13.669974 -0.33751,7.596837 -3.96291,17.984463 1.82155,17.984463" /><g
         id="g11"
         style="fill:none;fill-opacity:1;stroke:#ea580c;stroke-opacity:1"
         transform="translate(0,-0.033122)"><path
           style="fill:none;fill-opacity:1;stroke:#ea580c;stroke-width:3.365;stroke-linecap:round;stroke-dasharray:none;stroke-opacity:1"
           d="m 92.276061,66.16936 v 8.335196"
           id="path11" /><path
           id="path11-1-4"
           style="fill:none;fill-opacity:1;stroke:#ea580c;stroke-width:3.365;stroke-linecap:round;stroke-dasharray:none;stroke-opacity:1"
           d="m 97.531042,66.16936 c 0,0 -0.063,3.080152 -0.063,8.282155 0,2.781488 -1.57245,3.963554 -3.160516,4.941829 0.29787,10.202959 3.176497,18.486002 -2.013449,18.486002 M 86.998585,66.16936 c 0,0 0.06301,3.080152 0.06301,8.282155 0,2.781488 1.572453,3.963554 3.160517,4.941829 -0.297875,10.202959 -3.25658,18.486002 1.93337,18.486002" /></g></g></g></svg>
